<svg width="375" height="812" viewBox="0 0 375 812" fill="none" xmlns="http://www.w3.org/2000/svg">
<g clip-path="url(#clip0_1_2)">
<rect width="375" height="812" fill="#F8E5D6"/>
<path fill-rule="evenodd" clip-rule="evenodd" d="M34.5908 745.74C-36.4273 729.235 -106.353 674.218 -135.853 610.949C-159.343 560.884 -161.528 536.677 -159.343 373.278C-157.704 228.584 -157.158 218.131 -145.14 188.422C-111.269 102.596 -33.6958 49.2304 65.1832 42.6284C191.377 34.3759 295.172 108.098 319.756 223.083C324.126 243.439 325.765 302.306 324.672 407.388C322.487 553.732 321.941 562.535 309.922 593.344C284.793 656.613 224.154 714.93 162.97 734.186C120.905 747.94 65.7294 752.892 34.5908 745.74ZM22.5723 702.277C-35.881 681.92 -79.5844 642.859 -105.26 586.742C-117.825 559.234 -120.01 548.23 -121.103 484.411L-122.742 412.89L-110.177 428.844C-103.621 438.197 -85.5936 460.204 -70.2974 477.809C24.2112 590.593 54.2573 639.008 60.2665 689.073C63.5443 716.031 62.998 716.031 22.5723 702.277ZM103.97 706.678C97.9607 696.225 122.544 626.904 144.396 593.344C156.414 574.638 183.182 539.978 203.942 516.321C224.701 492.664 250.923 460.754 262.395 445.899C273.867 430.495 284.247 416.741 285.339 415.64C286.978 413.99 287.524 444.799 286.432 484.411C284.793 549.331 283.154 558.683 268.95 590.043C252.562 625.804 211.043 670.917 178.812 686.872C149.859 702.277 107.248 713.28 103.97 706.678ZM44.424 562.535C36.7759 549.881 9.46129 514.67 -16.2145 484.411C-95.9732 391.433 -122.195 341.368 -122.195 284.151C-122.195 212.079 -51.7235 163.115 8.36871 193.924C32.9519 206.027 49.887 237.387 58.6276 284.701L65.1832 322.663L31.313 356.223L-2.01085 390.333L30.7667 424.993L63.5443 459.654L60.8128 522.923L58.0813 586.192L44.424 562.535ZM-62.1031 308.908C-78.4918 290.203 -76.853 259.393 -58.8253 245.089C-27.1403 220.332 14.3779 239.037 14.3779 278.649C14.3779 317.161 -37.5199 337.517 -62.1031 308.908ZM101.785 521.272V456.353L134.562 423.343L167.34 390.883L133.47 356.773L100.146 322.663L106.155 288.002C109.433 268.746 118.174 242.338 124.729 229.134C166.247 147.71 286.978 186.222 286.978 280.85C287.524 340.268 260.756 393.084 189.192 475.058C167.886 499.816 139.479 535.026 126.368 553.182L101.785 586.192V521.272ZM161.877 307.258C146.581 287.452 147.673 263.795 164.062 247.29C192.469 218.681 238.358 237.937 238.358 278.649C238.358 318.261 184.821 338.067 161.877 307.258ZM65.7294 405.187L52.0721 389.783L67.9146 374.928L83.2108 360.074L97.9607 376.579L112.711 393.634L96.3218 407.388L79.9331 421.142L65.7294 405.187ZM58.0813 184.571C58.0813 181.82 46.0629 172.467 32.4056 164.215C5.09096 148.26 -36.9736 143.859 -70.2974 153.212L-86.6862 157.613L-67.566 137.807C-45.168 114.15 7.27612 87.1918 40.0537 81.6901L63.5443 78.3891V133.956C63.5443 164.765 61.9054 190.073 60.8128 190.073C59.1739 190.073 58.0813 187.322 58.0813 184.571ZM101.785 133.956V78.3891L124.729 81.6901C157.507 87.1918 209.951 114.15 232.895 137.807L252.015 157.613L235.626 153.212C191.377 141.108 138.933 152.111 112.711 179.069C101.785 190.073 101.785 190.073 101.785 133.956Z" fill="#804627" fill-opacity="0.03"/>
</g>
<defs>
<clipPath id="clip0_1_2">
<rect width="375" height="812" fill="white"/>
</clipPath>
</defs>
</svg>
